{
  "accessors": [
    {
      "bufferView": 2,
      "componentType": 5126,
      "count": 666,
      "max": [
        -12.023853302001953,
        2.509026527404785,
        2.4985203742980957
      ],
      "min": [
        -107.93351745605469,
        -3.0402133464813232,
        -2.4986186027526855
      ],
      "type": "VEC3"
    },
    {
      "bufferView": 2,
      "byteOffset": 7992,
      "componentType": 5126,
      "count": 666,
      "max": [
        1.0,
        1.0,
        1.0
      ],
      "min": [
        -0.9999997615814209,
        -1.0,
        -1.0
      ],
      "type": "VEC3"
    },
    {
      "bufferView": 1,
      "componentType": 5126,
      "count": 666,
      "max": [
        0.9433789849281311,
        0.9955949783325195
      ],
      "min": [
        0.007992769591510296,
        0.0003141164779663086
      ],
      "type": "VEC2"
    },
    {
      "bufferView": 0,
      "componentType": 5125,
      "count": 1050,
      "type": "SCALAR"
    },
    {
      "bufferView": 2,
      "byteOffset": 15984,
      "componentType": 5126,
      "count": 550,
      "max": [
        60.02667236328125,
        10.296318054199219,
        40.912960052490234
      ],
      "min": [
        -34.645843505859375,
        -0.8086395263671875,
        -40.94003677368164
      ],
      "type": "VEC3"
    },
    {
      "bufferView": 2,
      "byteOffset": 22584,
      "componentType": 5126,
      "count": 550,
      "max": [
        0.9999958872795105,
        0.9998160004615784,
        0.9972919225692749
      ],
      "min": [
        -0.9999958872795105,
        -0.9998160004615784,
        -0.9972919225692749
      ],
      "type": "VEC3"
    },
    {
      "bufferView": 1,
      "byteOffset": 5328,
      "componentType": 5126,
      "count": 550,
      "max": [
        0.9818990230560303,
        0.9989219903945923
      ],
      "min": [
        0.00025599999935366213,
        0.00025600194931030273
      ],
      "type": "VEC2"
    },
    {
      "bufferView": 0,
      "byteOffset": 4200,
      "componentType": 5125,
      "count": 600,
      "type": "SCALAR"
    },
    {
      "bufferView": 2,
      "byteOffset": 29184,
      "componentType": 5126,
      "count": 12503,
      "max": [
        59.788230895996094,
        30.35712432861328,
        40.936614990234375
      ],
      "min": [
        -34.66899871826172,
        -1.3827133178710938,
        -40.9649658203125
      ],
      "type": "VEC3"
    },
    {
      "bufferView": 2,
      "byteOffset": 179220,
      "componentType": 5126,
      "count": 12503,
      "max": [
        1.0,
        1.0,
        1.0
      ],
      "min": [
        -1.0,
        -1.0,
        -1.0
      ],
      "type": "VEC3"
    },
    {
      "bufferView": 1,
      "byteOffset": 9728,
      "componentType": 5126,
      "count": 12503,
      "max": [
        0.9988660216331482,
        0.9989619851112366
      ],
      "min": [
        0.00025599999935366213,
        0.00025600194931030273
      ],
      "type": "VEC2"
    },
    {
      "bufferView": 0,
      "byteOffset": 6600,
      "componentType": 5125,
      "count": 17661,
      "type": "SCALAR"
    },
    {
      "bufferView": 2,
      "byteOffset": 329256,
      "componentType": 5126,
      "count": 886,
      "max": [
        12.510327339172363,
        1.7820550203323364,
        6.0160298347473145
      ],
      "min": [
        -0.9035053253173828,
        -2.3856523036956787,
        -6.016130447387695
      ],
      "type": "VEC3"
    },
    {
      "bufferView": 2,
      "byteOffset": 339888,
      "componentType": 5126,
      "count": 886,
      "max": [
        1.0,
        1.0,
        1.0
      ],
      "min": [
        -1.0,
        -1.0,
        -1.0
      ],
      "type": "VEC3"
    },
    {
      "bufferView": 1,
      "byteOffset": 109752,
      "componentType": 5126,
      "count": 886,
      "max": [
        0.9727039933204651,
        0.9955959916114807
      ],
      "min": [
        0.017656000331044197,
        0.01458597183227539
      ],
      "type": "VEC2"
    },
    {
      "bufferView": 0,
      "byteOffset": 77244,
      "componentType": 5125,
      "count": 1236,
      "type": "SCALAR"
    },
    {
      "bufferView": 2,
      "byteOffset": 350520,
      "componentType": 5126,
      "count": 730,
      "max": [
        10.253632545471191,
        16.069358825683594,
        8.869383811950684
      ],
      "min": [
        -3.7298424243927,
        4.610439777374268,
        -7.119442939758301
      ],
      "type": "VEC3"
    },
    {
      "bufferView": 2,
      "byteOffset": 359280,
      "componentType": 5126,
      "count": 730,
      "max": [
        1.0,
        1.0,
        1.0
      ],
      "min": [
        -1.0,
        -1.0,
        -1.0
      ],
      "type": "VEC3"
    },
    {
      "bufferView": 1,
      "byteOffset": 116840,
      "componentType": 5126,
      "count": 730,
      "max": [
        0.9820690155029297,
        0.99549400806427
      ],
      "min": [
        0.03044999949634075,
        0.00025600194931030273
      ],
      "type": "VEC2"
    },
    {
      "bufferView": 0,
      "byteOffset": 82188,
      "componentType": 5125,
      "count": 972,
      "type": "SCALAR"
    },
    {
      "bufferView": 2,
      "byteOffset": 368040,
      "componentType": 5126,
      "count": 639,
      "max": [
        0.20362257957458496,
        7.378978729248047,
        6.435187816619873
      ],
      "min": [
        -18.437244415283203,
        -4.111568450927734,
        -8.460197448730469
      ],
      "type": "VEC3"
    },
    {
      "bufferView": 2,
      "byteOffset": 375708,
      "componentType": 5126,
      "count": 639,
      "max": [
        1.0,
        1.0,
        1.0
      ],
      "min": [
        -1.0,
        -1.0,
        -1.0
      ],
      "type": "VEC3"
    },
    {
      "bufferView": 1,
      "byteOffset": 122680,
      "componentType": 5126,
      "count": 639,
      "max": [
        0.9728649854660034,
        0.9955170154571533
      ],
      "min": [
        0.00025599999935366213,
        0.02661198377609253
      ],
      "type": "VEC2"
    },
    {
      "bufferView": 0,
      "byteOffset": 86076,
      "componentType": 5125,
      "count": 774,
      "type": "SCALAR"
    },
    {
      "bufferView": 2,
      "byteOffset": 383376,
      "componentType": 5126,
      "count": 542,
      "max": [
        11.199438095092773,
        0.6934595108032227,
        6.67385196685791
      ],
      "min": [
        -0.6461858749389648,
        -2.1340816020965576,
        -6.673955917358398
      ],
      "type": "VEC3"
    },
    {
      "bufferView": 2,
      "byteOffset": 389880,
      "componentType": 5126,
      "count": 542,
      "max": [
        1.0,
        1.0,
        1.0
      ],
      "min": [
        -1.0,
        -1.0,
        -1.0
      ],
      "type": "VEC3"
    },
    {
      "bufferView": 1,
      "byteOffset": 127792,
      "componentType": 5126,
      "count": 542,
      "max": [
        0.971347987651825,
        0.992093026638031
      ],
      "min": [
        0.00025599999935366213,
        0.03147399425506592
      ],
      "type": "VEC2"
    },
    {
      "bufferView": 0,
      "byteOffset": 89172,
      "componentType": 5125,
      "count": 720,
      "type": "SCALAR"
    },
    {
      "bufferView": 2,
      "byteOffset": 396384,
      "componentType": 5126,
      "count": 817,
      "max": [
        8.867108345031738,
        2.140286445617676,
        7.804363250732422
      ],
      "min": [
        -17.64240837097168,
        -4.059341907501221,
        1.5578404664993286
      ],
      "type": "VEC3"
    },
    {
      "bufferView": 2,
      "byteOffset": 406188,
      "componentType": 5126,
      "count": 817,
      "max": [
        1.0,
        1.0,
        1.0
      ],
      "min": [
        -1.0,
        -1.0,
        -1.0
      ],
      "type": "VEC3"
    },
    {
      "bufferView": 1,
      "byteOffset": 132128,
      "componentType": 5126,
      "count": 817,
      "max": [
        0.9820299744606018,
        0.9911890029907227
      ],
      "min": [
        0.08418600261211395,
        0.00025600194931030273
      ],
      "type": "VEC2"
    },
    {
      "bufferView": 0,
      "byteOffset": 92052,
      "componentType": 5125,
      "count": 1158,
      "type": "SCALAR"
    },
    {
      "bufferView": 2,
      "byteOffset": 415992,
      "componentType": 5126,
      "count": 23106,
      "max": [
        77.95325469970703,
        13.926935195922852,
        41.32027816772461
      ],
      "min": [
        -68.60758972167969,
        -8.795872688293457,
        -42.26921463012695
      ],
      "type": "VEC3"
    },
    {
      "bufferView": 2,
      "byteOffset": 693264,
      "componentType": 5126,
      "count": 23106,
      "max": [
        1.0,
        1.0,
        1.0
      ],
      "min": [
        -1.0,
        -1.0,
        -1.0
      ],
      "type": "VEC3"
    },
    {
      "bufferView": 1,
      "byteOffset": 138664,
      "componentType": 5126,
      "count": 23106,
      "max": [
        0.9989370107650757,
        0.9989569783210754
      ],
      "min": [
        0.00025599999935366213,
        0.00025600194931030273
      ],
      "type": "VEC2"
    },
    {
      "bufferView": 0,
      "byteOffset": 96684,
      "componentType": 5125,
      "count": 31533,
      "type": "SCALAR"
    },
    {
      "bufferView": 2,
      "byteOffset": 970536,
      "componentType": 5126,
      "count": 1024,
      "max": [
        34.33436584472656,
        53.234344482421875,
        24.786962509155273
      ],
      "min": [
        -34.33436584472656,
        -74.66524505615234,
        -0.12748819589614868
      ],
      "type": "VEC3"
    },
    {
      "bufferView": 2,
      "byteOffset": 982824,
      "componentType": 5126,
      "count": 1024,
      "max": [
        1.0,
        0.9999931454658508,
        1.0
      ],
      "min": [
        -1.0,
        -0.9997597932815552,
        -1.0
      ],
      "type": "VEC3"
    },
    {
      "bufferView": 1,
      "byteOffset": 323512,
      "componentType": 5126,
      "count": 1024,
      "max": [
        0.999897837638855,
        20.600357055664063
      ],
      "min": [
        0.0,
        -4.1961669921875e-05
      ],
      "type": "VEC2"
    },
    {
      "bufferView": 0,
      "byteOffset": 222816,
      "componentType": 5125,
      "count": 1944,
      "type": "SCALAR"
    },
    {
      "bufferView": 2,
      "byteOffset": 995112,
      "componentType": 5126,
      "count": 1365,
      "max": [
        19.000396728515625,
        4.373023986816406,
        21.147350311279297
      ],
      "min": [
        -19.000396728515625,
        -4.373020172119141,
        -21.147350311279297
      ],
      "type": "VEC3"
    },
    {
      "bufferView": 2,
      "byteOffset": 1011492,
      "componentType": 5126,
      "count": 1365,
      "max": [
        1.0,
        0.9999449849128723,
        1.0
      ],
      "min": [
        -1.0,
        -1.0,
        -1.0
      ],
      "type": "VEC3"
    },
    {
      "bufferView": 1,
      "byteOffset": 331704,
      "componentType": 5126,
      "count": 1365,
      "max": [
        0.9819440245628357,
        0.994924008846283
      ],
      "min": [
        0.00025599999935366213,
        0.01458597183227539
      ],
      "type": "VEC2"
    },
    {
      "bufferView": 0,
      "byteOffset": 230592,
      "componentType": 5125,
      "count": 1986,
      "type": "SCALAR"
    },
    {
      "bufferView": 2,
      "byteOffset": 1027872,
      "componentType": 5126,
      "count": 7416,
      "max": [
        33.9712028503418,
        51.09803009033203,
        22.415790557861328
      ],
      "min": [
        -33.9712028503418,
        -72.21571350097656,
        1.6206707954406738
      ],
      "type": "VEC3"
    },
    {
      "bufferView": 2,
      "byteOffset": 1116864,
      "componentType": 5126,
      "count": 7416,
      "max": [
        1.0,
        0.9999534487724304,
        1.0
      ],
      "min": [
        -1.0,
        -0.9999533891677856,
        -1.0
      ],
      "type": "VEC3"
    },
    {
      "bufferView": 1,
      "byteOffset": 342624,
      "componentType": 5126,
      "count": 7416,
      "max": [
        0.9827179908752441,
        0.9960240125656128
      ],
      "min": [
        0.0035830000415444374,
        0.01458597183227539
      ],
      "type": "VEC2"
    },
    {
      "bufferView": 0,
      "byteOffset": 238536,
      "componentType": 5125,
      "count": 8580,
      "type": "SCALAR"
    }
  ],
  "asset": {
    "extras": {
      "author": "42manako (https://sketchfab.com/42manako)",
      "license": "CC-BY-4.0 (http://creativecommons.org/licenses/by/4.0/)",
      "source": "https://sketchfab.com/3d-models/russian-t-90m3-e2155840ad704692b66119f8a5274220",
      "title": "Russian T-90M3"
    },
    "generator": "Sketchfab-16.65.0",
    "version": "2.0"
  },
  "bufferViews": [
    {
      "buffer": 0,
      "byteLength": 272856,
      "name": "floatBufferViews",
      "target": 34963
    },
    {
      "buffer": 0,
      "byteLength": 401952,
      "byteOffset": 272856,
      "byteStride": 8,
      "name": "floatBufferViews",
      "target": 34962
    },
    {
      "buffer": 0,
      "byteLength": 1205856,
      "byteOffset": 674808,
      "byteStride": 12,
      "name": "floatBufferViews",
      "target": 34962
    }
  ],
  "buffers": [
    {
      "byteLength": 1880664,
      "uri": "scene.bin"
    }
  ],
  "extensionsUsed": [
    "KHR_materials_specular"
  ],
  "images": [
    {
      "uri": "textures/b63bbc8db9168ac9e99ce64a6886bf7b_baseColor.png"
    },
    {
      "uri": "textures/7ddde163cf81bfce9440d09ca3685a5b_baseColor.png"
    }
  ],
  "materials": [
    {
      "alphaCutoff": 0.2971437627238483,
      "alphaMode": "MASK",
      "doubleSided": true,
      "extensions": {
        "KHR_materials_specular": {
          "specularColorFactor": [
            1.0,
            1.0,
            1.0
          ],
          "specularFactor": 0.0
        }
      },
      "name": "b63bbc8db9168ac9e99ce64a6886bf7b",
      "pbrMetallicRoughness": {
        "baseColorTexture": {
          "index": 0
        },
        "metallicFactor": 0.0
      }
    },
    {
      "alphaCutoff": 0.1,
      "alphaMode": "MASK",
      "doubleSided": true,
      "extensions": {
        "KHR_materials_specular": {
          "specularColorFactor": [
            1.0,
            1.0,
            1.0
          ],
          "specularFactor": 0.0
        }
      },
      "name": "7ddde163cf81bfce9440d09ca3685a5b",
      "pbrMetallicRoughness": {
        "baseColorTexture": {
          "index": 1
        },
        "metallicFactor": 0.0
      }
    }
  ],
  "meshes": [
    {
      "name": "Mesh_0000_b63bbc8db9168ac9e99ce64a6886bf7b_0",
      "primitives": [
        {
          "attributes": {
            "NORMAL": 1,
            "POSITION": 0,
            "TEXCOORD_0": 2
          },
          "indices": 3,
          "material": 0,
          "mode": 4
        }
      ]
    },
    {
      "name": "Mesh_0043_b63bbc8db9168ac9e99ce64a6886bf7b_0",
      "primitives": [
        {
          "attributes": {
            "NORMAL": 5,
            "POSITION": 4,
            "TEXCOORD_0": 6
          },
          "indices": 7,
          "material": 0,
          "mode": 4
        }
      ]
    },
    {
      "name": "Mesh_0023_b63bbc8db9168ac9e99ce64a6886bf7b_0",
      "primitives": [
        {
          "attributes": {
            "NORMAL": 9,
            "POSITION": 8,
            "TEXCOORD_0": 10
          },
          "indices": 11,
          "material": 0,
          "mode": 4
        }
      ]
    },
    {
      "name": "Mesh_0015_b63bbc8db9168ac9e99ce64a6886bf7b_0",
      "primitives": [
        {
          "attributes": {
            "NORMAL": 13,
            "POSITION": 12,
            "TEXCOORD_0": 14
          },
          "indices": 15,
          "material": 0,
          "mode": 4
        }
      ]
    },
    {
      "name": "Mesh_0030_b63bbc8db9168ac9e99ce64a6886bf7b_0",
      "primitives": [
        {
          "attributes": {
            "NORMAL": 17,
            "POSITION": 16,
            "TEXCOORD_0": 18
          },
          "indices": 19,
          "material": 0,
          "mode": 4
        }
      ]
    },
    {
      "name": "Mesh_0008_b63bbc8db9168ac9e99ce64a6886bf7b_0",
      "primitives": [
        {
          "attributes": {
            "NORMAL": 21,
            "POSITION": 20,
            "TEXCOORD_0": 22
          },
          "indices": 23,
          "material": 0,
          "mode": 4
        }
      ]
    },
    {
      "name": "Mesh_0026_b63bbc8db9168ac9e99ce64a6886bf7b_0",
      "primitives": [
        {
          "attributes": {
            "NORMAL": 25,
            "POSITION": 24,
            "TEXCOORD_0": 26
          },
          "indices": 27,
          "material": 0,
          "mode": 4
        }
      ]
    },
    {
      "name": "Mesh_0028_b63bbc8db9168ac9e99ce64a6886bf7b_0",
      "primitives": [
        {
          "attributes": {
            "NORMAL": 29,
            "POSITION": 28,
            "TEXCOORD_0": 30
          },
          "indices": 31,
          "material": 0,
          "mode": 4
        }
      ]
    },
    {
      "name": "t90m_body_b63bbc8db9168ac9e99ce64a6886bf7b_0",
      "primitives": [
        {
          "attributes": {
            "NORMAL": 33,
            "POSITION": 32,
            "TEXCOORD_0": 34
          },
          "indices": 35,
          "material": 0,
          "mode": 4
        }
      ]
    },
    {
      "name": "Mesh_0042_7ddde163cf81bfce9440d09ca3685a5b_0",
      "primitives": [
        {
          "attributes": {
            "NORMAL": 37,
            "POSITION": 36,
            "TEXCOORD_0": 38
          },
          "indices": 39,
          "material": 1,
          "mode": 4
        }
      ]
    },
    {
      "name": "Mesh_0039_b63bbc8db9168ac9e99ce64a6886bf7b_0",
      "primitives": [
        {
          "attributes": {
            "NORMAL": 41,
            "POSITION": 40,
            "TEXCOORD_0": 42
          },
          "indices": 43,
          "material": 0,
          "mode": 4
        }
      ]
    },
    {
      "name": "Mesh_0037_b63bbc8db9168ac9e99ce64a6886bf7b_0",
      "primitives": [
        {
          "attributes": {
            "NORMAL": 45,
            "POSITION": 44,
            "TEXCOORD_0": 46
          },
          "indices": 47,
          "material": 0,
          "mode": 4
        }
      ]
    }
  ],
  "nodes": [
    {
      "children": [
        1
      ],
      "matrix": [
        1.0,
        0.0,
        0.0,
        0.0,
        0.0,
        2.220446049250313e-16,
        -1.0,
        0.0,
        0.0,
        1.0,
        2.220446049250313e-16,
        0.0,
        0.0,
        0.0,
        0.0,
        1.0
      ],
      "name": "Sketchfab_model"
    },
    {
      "children": [
        2
      ],
      "matrix": [
        0.009999999776482582,
        0.0,
        0.0,
        0.0,
        0.0,
        0.0,
        0.009999999776482582,
        0.0,
        0.0,
        -0.009999999776482582,
        0.0,
        0.0,
        0.0,
        0.0,
        0.0,
        1.0
      ],
      "name": "d7da639723e9420ead74ce23f61da3ce.fbx"
    },
    {
      "children": [
        3,
        5,
        7,
        9,
        12,
        14,
        16,
        18,
        20,
        22,
        24,
        26,
        28,
        30
      ],
      "name": "RootNode"
    },
    {
      "children": [
        4
      ],
      "matrix": [
        7.549789948768648e-06,
        0.0,
        -99.99999999999972,
        0.0,
        4.371139539216514e-06,
        99.9999999999999,
        3.3001185376880853e-13,
        0.0,
        99.99999999999962,
        -4.371139539216526e-06,
        7.549789948768648e-06,
        0.0,
        -57.420875549316406,
        3415.94921875,
        821.8936157226563,
        1.0
      ],
      "name": "Mesh_0000"
    },
    {
      "mesh": 0,
      "name": "Mesh_0000_b63bbc8db9168ac9e99ce64a6886bf7b_0"
    },
    {
      "children": [
        6
      ],
      "matrix": [
        7.549789948768648e-06,
        0.0,
        -99.99999999999972,
        0.0,
        4.371139539216514e-06,
        99.9999999999999,
        3.3001185376880853e-13,
        0.0,
        99.99999999999962,
        -4.371139539216526e-06,
        7.549789948768648e-06,
        0.0,
        -57.420875549316406,
        3169.803466796875,
        696.7687377929688,
        1.0
      ],
      "name": "Mesh_0043"
    },
    {
      "mesh": 1,
      "name": "Mesh_0043_b63bbc8db9168ac9e99ce64a6886bf7b_0"
    },
    {
      "children": [
        8
      ],
      "matrix": [
        7.549789948768648e-06,
        0.0,
        -99.99999999999972,
        0.0,
        4.371139539216514e-06,
        99.9999999999999,
        3.3001185376880853e-13,
        0.0,
        99.99999999999962,
        -4.371139539216526e-06,
        7.549789948768648e-06,
        0.0,
        -57.420875549316406,
        3169.803466796875,
        696.7687377929688,
        1.0
      ],
      "name": "Mesh_0023"
    },
    {
      "mesh": 2,
      "name": "Mesh_0023_b63bbc8db9168ac9e99ce64a6886bf7b_0"
    },
    {
      "children": [
        10
      ],
      "matrix": [
        -5.518909479158163,
        95.51711828214592,
        29.086453087913743,
        0.0,
        79.46724827533977,
        21.83911264561964,
        -56.63930734283754,
        0.0,
        -60.452457443331085,
        19.988331787989257,
        -77.11010638868596,
        0.0,
        532.96533203125,
        3270.3486328125,
        289.1443176269531,
        1.0
      ],
      "name": "Light"
    },
    {
      "children": [
        11
      ],
      "matrix": [
        1.0,
        0.0,
        0.0,
        0.0,
        0.0,
        2.220446049250313e-16,
        1.0,
        0.0,
        0.0,
        -1.0,
        2.220446049250313e-16,
        0.0,
        0.0,
        0.0,
        0.0,
        1.0
      ],
      "name": "Object_10"
    },
    {
      "name": "Object_11"
    },
    {
      "children": [
        13
      ],
      "matrix": [
        -44.527125389359725,
        61.41703876815616,
        65.15583207596264,
        0.0,
        89.53957284106417,
        30.542073642618462,
        32.40133690218096,
        0.0,
        -5.68487967811393e-07,
        72.76763763212102,
        -68.59206159199711,
        0.0,
        438.4100036621094,
        2477.224365234375,
        -39.12029266357422,
        1.0
      ],
      "name": "Camera"
    },
    {
      "name": "Object_13"
    },
    {
      "children": [
        15
      ],
      "matrix": [
        7.549789948768648e-06,
        0.0,
        -99.99999999999972,
        0.0,
        4.371139539216514e-06,
        99.9999999999999,
        3.3001185376880853e-13,
        0.0,
        99.99999999999962,
        -4.371139539216526e-06,
        7.549789948768648e-06,
        0.0,
        -1424.1121826171875,
        4808.59130859375,
        573.2427368164063,
        1.0
      ],
      "name": "Mesh_0015"
    },
    {
      "mesh": 3,
      "name": "Mesh_0015_b63bbc8db9168ac9e99ce64a6886bf7b_0"
    },
    {
      "children": [
        17
      ],
      "matrix": [
        7.549789948768648e-06,
        0.0,
        -99.99999999999972,
        0.0,
        4.371139539216514e-06,
        99.9999999999999,
        3.3001185376880853e-13,
        0.0,
        99.99999999999962,
        -4.371139539216526e-06,
        7.549789948768648e-06,
        0.0,
        -983.5393676757813,
        4371.19873046875,
        -1621.59228515625,
        1.0
      ],
      "name": "Mesh_0030"
    },
    {
      "mesh": 4,
      "name": "Mesh_0030_b63bbc8db9168ac9e99ce64a6886bf7b_0"
    },
    {
      "children": [
        19
      ],
      "matrix": [
        7.549789948768648e-06,
        0.0,
        -99.99999999999972,
        0.0,
        4.371139539216514e-06,
        99.9999999999999,
        3.3001185376880853e-13,
        0.0,
        99.99999999999962,
        -4.371139539216526e-06,
        7.549789948768648e-06,
        0.0,
        -57.4207763671875,
        3415.94921875,
        2765.926025390625,
        1.0
      ],
      "name": "Mesh_0008"
    },
    {
      "mesh": 5,
      "name": "Mesh_0008_b63bbc8db9168ac9e99ce64a6886bf7b_0"
    },
    {
      "children": [
        21
      ],
      "matrix": [
        7.549789948768648e-06,
        0.0,
        -99.99999999999972,
        0.0,
        4.371139539216514e-06,
        99.9999999999999,
        3.3001185376880853e-13,
        0.0,
        99.99999999999962,
        -4.371139539216526e-06,
        7.549789948768648e-06,
        0.0,
        1011.3164672851563,
        4583.8486328125,
        -223.1128692626953,
        1.0
      ],
      "name": "Mesh_0026"
    },
    {
      "mesh": 6,
      "name": "Mesh_0026_b63bbc8db9168ac9e99ce64a6886bf7b_0"
    },
    {
      "children": [
        23
      ],
      "matrix": [
        1.9470718881642313e-05,
        -6.617444900424221e-22,
        -99.9999999999981,
        0.0,
        4.371139894487813e-06,
        99.9999999999999,
        8.510923609258227e-13,
        0.0,
        99.99999999999801,
        -4.371139894487895e-06,
        1.9470718881642313e-05,
        0.0,
        -885.1659545898438,
        5808.447265625,
        -1947.6932373046875,
        1.0
      ],
      "name": "Mesh_0028"
    },
    {
      "mesh": 7,
      "name": "Mesh_0028_b63bbc8db9168ac9e99ce64a6886bf7b_0"
    },
    {
      "children": [
        25
      ],
      "matrix": [
        7.549789948768648e-06,
        0.0,
        -99.99999999999972,
        0.0,
        4.371139539216514e-06,
        99.9999999999999,
        3.3001185376880853e-13,
        0.0,
        99.99999999999962,
        -4.371139539216526e-06,
        7.549789948768648e-06,
        0.0,
        -91.3023452758789,
        1792.8870849609375,
        931.4251098632813,
        1.0
      ],
      "name": "t90m_body"
    },
    {
      "mesh": 8,
      "name": "t90m_body_b63bbc8db9168ac9e99ce64a6886bf7b_0"
    },
    {
      "children": [
        27
      ],
      "matrix": [
        100.0,
        0.0,
        0.0,
        0.0,
        0.0,
        -1.629206793918314e-05,
        -99.99999999999868,
        0.0,
        0.0,
        99.99999999999868,
        -1.629206793918314e-05,
        0.0,
        0.0,
        0.0,
        0.0,
        1.0
      ],
      "name": "Mesh_0042"
    },
    {
      "mesh": 9,
      "name": "Mesh_0042_7ddde163cf81bfce9440d09ca3685a5b_0"
    },
    {
      "children": [
        29
      ],
      "matrix": [
        7.549789948768648e-06,
        0.0,
        -99.99999999999972,
        0.0,
        4.371139539216514e-06,
        99.9999999999999,
        3.3001185376880853e-13,
        0.0,
        99.99999999999962,
        -4.371139539216526e-06,
        7.549789948768648e-06,
        0.0,
        -24.621688842773438,
        3051.6318359375,
        -4060.6064453125,
        1.0
      ],
      "name": "Mesh_0039"
    },
    {
      "mesh": 10,
      "name": "Mesh_0039_b63bbc8db9168ac9e99ce64a6886bf7b_0"
    },
    {
      "children": [
        31
      ],
      "matrix": [
        100.0,
        0.0,
        0.0,
        0.0,
        0.0,
        -1.629206793918314e-05,
        -99.99999999999868,
        0.0,
        0.0,
        99.99999999999868,
        -1.629206793918314e-05,
        0.0,
        0.0,
        0.0,
        0.0,
        1.0
      ],
      "name": "Mesh_0037"
    },
    {
      "mesh": 11,
      "name": "Mesh_0037_b63bbc8db9168ac9e99ce64a6886bf7b_0"
    }
  ],
  "samplers": [
    {
      "magFilter": 9729,
      "minFilter": 9987,
      "wrapS": 10497,
      "wrapT": 10497
    }
  ],
  "scene": 0,
  "scenes": [
    {
      "name": "Sketchfab_Scene",
      "nodes": [
        0
      ]
    }
  ],
  "textures": [
    {
      "sampler": 0,
      "source": 0
    },
    {
      "sampler": 0,
      "source": 1
    }
  ]
}
